<svg xmlns="http://www.w3.org/2000/svg" width="126.8" height="126.8" viewBox="0 0 126.8 126.8"><defs><style>.a{fill:#8bb8c0;}.b{fill:#68969e;}.c{fill:#fff;}</style></defs><circle class="a" cx="63.4" cy="63.4" r="63.4" transform="translate(0 0)"/><path class="b" d="M188.8,206l32.6,32.6a63.358,63.358,0,0,0,47-61.2v-1.8L242.8,152Z" transform="translate(-141.6 -114)"/><g transform="translate(21.3 31.3)"><path class="c" d="M128.9,227.3a7.488,7.488,0,0,1,0,10.4l-5.8,5.8a7.488,7.488,0,0,1-10.4,0L87.3,217.9a7.488,7.488,0,0,1,0-10.4l5.8-5.8a7.488,7.488,0,0,1,10.4,0Z" transform="translate(-85.2 -181)"/><path class="c" d="M210.5,127.3a7.488,7.488,0,0,1,10.4,0l5.8,5.8a7.488,7.488,0,0,1,0,10.4l-44,43.8a7.488,7.488,0,0,1-10.4,0l-5.8-5.8a7.488,7.488,0,0,1,0-10.4Z" transform="translate(-144.6 -125.2)"/></g></svg>